<?xml version="1.0" encoding="iso-8859-1"?>
<!-- Uploaded to: SVG Repo, www.svgrepo.com, Generator: SVG Repo Mixer Tools -->
<svg height="800px" width="800px" version="1.1" id="Layer_1" xmlns="http://www.w3.org/2000/svg" xmlns:xlink="http://www.w3.org/1999/xlink" 
	 viewBox="0 0 512 512" xml:space="preserve">
<path style="fill:#5DACD8;" d="M396.365,9.109H116.094c-23.378,0-42.329,18.951-42.329,42.329v409.589
	c0,23.378,18.951,42.329,42.329,42.329h280.272c23.378,0,42.329-18.951,42.329-42.329V51.438
	C438.695,28.06,419.743,9.109,396.365,9.109z"/>
<path style="fill:#4C9CBF;" d="M104.537,461.027V51.438c0-23.378,18.951-42.329,42.329-42.329h-30.773
	c-23.378,0-42.329,18.951-42.329,42.329v409.589c0,23.378,18.951,42.329,42.329,42.329h30.773
	C123.489,503.356,104.537,484.404,104.537,461.027z"/>
<path style="fill:#E6E6E6;" d="M377.436,163.558H135.022c-10.025,0-18.151-8.126-18.151-18.151V75.192
	c0-10.025,8.126-18.151,18.151-18.151h242.415c10.025,0,18.151,8.126,18.151,18.151v70.213
	C395.588,155.431,387.461,163.558,377.436,163.558z"/>
<g>
	<path style="fill:#F7A872;" d="M380.301,271.849h-40.508c-8.442,0-15.287-6.845-15.287-15.287v-33.335
		c0-8.442,6.845-15.287,15.287-15.287h40.508c8.442,0,15.287,6.845,15.287,15.287v33.335
		C395.588,265.005,388.743,271.849,380.301,271.849z"/>
	<path style="fill:#F7A872;" d="M276.483,271.849h-40.508c-8.442,0-15.287-6.845-15.287-15.287v-33.335
		c0-8.442,6.845-15.287,15.287-15.287h40.508c8.444,0,15.287,6.845,15.287,15.287v33.335
		C291.771,265.005,284.926,271.849,276.483,271.849z"/>
	<path style="fill:#F7A872;" d="M172.665,271.849h-40.508c-8.442,0-15.287-6.845-15.287-15.287v-33.335
		c0-8.442,6.845-15.287,15.287-15.287h40.508c8.442,0,15.287,6.845,15.287,15.287v33.335
		C187.953,265.005,181.109,271.849,172.665,271.849z"/>
	<path style="fill:#F7A872;" d="M380.301,366.82h-40.508c-8.442,0-15.287-6.845-15.287-15.287v-33.335
		c0-8.444,6.845-15.287,15.287-15.287h40.508c8.442,0,15.287,6.845,15.287,15.287v33.335
		C395.588,359.977,388.743,366.82,380.301,366.82z"/>
	<path style="fill:#F7A872;" d="M276.483,366.82h-40.508c-8.442,0-15.287-6.845-15.287-15.287v-33.335
		c0-8.444,6.845-15.287,15.287-15.287h40.508c8.444,0,15.287,6.845,15.287,15.287v33.335
		C291.771,359.977,284.926,366.82,276.483,366.82z"/>
	<path style="fill:#F7A872;" d="M172.665,366.82h-40.508c-8.442,0-15.287-6.845-15.287-15.287v-33.335
		c0-8.444,6.845-15.287,15.287-15.287h40.508c8.442,0,15.287,6.845,15.287,15.287v33.335
		C187.953,359.977,181.109,366.82,172.665,366.82z"/>
	<path style="fill:#F7A872;" d="M380.301,461.793h-40.508c-8.442,0-15.287-6.845-15.287-15.287V413.17
		c0-8.444,6.845-15.287,15.287-15.287h40.508c8.442,0,15.287,6.845,15.287,15.287v33.335
		C395.588,454.948,388.743,461.793,380.301,461.793z"/>
	<path style="fill:#F7A872;" d="M276.483,461.793h-40.508c-8.442,0-15.287-6.845-15.287-15.287V413.17
		c0-8.444,6.845-15.287,15.287-15.287h40.508c8.444,0,15.287,6.845,15.287,15.287v33.335
		C291.771,454.948,284.926,461.793,276.483,461.793z"/>
	<path style="fill:#F7A872;" d="M172.665,461.793h-40.508c-8.442,0-15.287-6.845-15.287-15.287V413.17
		c0-8.444,6.845-15.287,15.287-15.287h40.508c8.442,0,15.287,6.845,15.287,15.287v33.335
		C187.953,454.948,181.109,461.793,172.665,461.793z"/>
</g>
<path d="M396.136,0H115.864C87.629,0,64.658,22.971,64.658,51.206v242.987c0,4.902,3.974,8.877,8.877,8.877s8.877-3.974,8.877-8.877
	V51.206c0-18.446,15.007-33.453,33.453-33.453h280.272c18.445,0,33.453,15.007,33.453,33.453v409.589
	c0,18.446-15.007,33.453-33.453,33.453H115.864c-18.445,0-33.453-15.007-33.453-33.453V323.782c0-4.902-3.974-8.877-8.877-8.877
	c-4.902,0-8.877,3.974-8.877,8.877v137.012c0,28.235,22.971,51.206,51.206,51.206h280.272c28.234,0,51.206-22.971,51.206-51.206
	V51.206C447.341,22.971,424.37,0,396.136,0z"/>
<path d="M323.467,47.932H134.792c-14.904,0-27.028,12.126-27.028,27.028v70.213c0,14.904,12.125,27.028,27.028,27.028h242.415
	c14.904,0,27.028-12.125,27.028-27.028V74.96c0-14.904-12.125-27.028-27.028-27.028h-24.151c-4.902,0-8.877,3.974-8.877,8.877
	s3.974,8.877,8.877,8.877h24.151c5.114,0,9.274,4.161,9.274,9.274v70.213c0,5.114-4.16,9.274-9.274,9.274H134.792
	c-5.114,0-9.274-4.16-9.274-9.274V74.96c0-5.114,4.16-9.274,9.274-9.274h188.675c4.902,0,8.877-3.974,8.877-8.877
	S328.369,47.932,323.467,47.932z"/>
<path d="M404.235,222.995c0-13.325-10.84-24.165-24.164-24.165h-40.508c-13.323,0-24.164,10.84-24.164,24.165v33.335
	c0,13.325,10.84,24.165,24.164,24.165h40.508c13.323,0,24.164-10.84,24.164-24.165L404.235,222.995L404.235,222.995z
	 M386.481,256.329c0,3.535-2.876,6.411-6.41,6.411h-40.508c-3.534,0-6.41-2.876-6.41-6.411v-33.335c0-3.535,2.876-6.411,6.41-6.411
	h40.508c3.534,0,6.41,2.876,6.41,6.411V256.329z"/>
<path d="M300.418,222.995c0-13.325-10.84-24.165-24.164-24.165h-40.508c-13.324,0-24.164,10.84-24.164,24.165v33.335
	c0,13.325,10.84,24.165,24.164,24.165h40.508c13.324,0,24.164-10.84,24.164-24.165V222.995L300.418,222.995z M282.664,256.329
	c0,3.535-2.876,6.411-6.41,6.411h-40.508c-3.534,0-6.41-2.876-6.41-6.411v-33.335c0-3.535,2.876-6.411,6.41-6.411h40.508
	c3.534,0,6.41,2.876,6.41,6.411L282.664,256.329L282.664,256.329z"/>
<path d="M107.764,256.329c0,13.325,10.84,24.165,24.164,24.165h40.508c13.323,0,24.164-10.84,24.164-24.165v-33.335
	c0-13.325-10.84-24.165-24.164-24.165h-40.508c-13.323,0-24.164,10.84-24.164,24.165
	C107.764,222.994,107.764,256.329,107.764,256.329z M125.517,222.995c0-3.535,2.876-6.411,6.41-6.411h40.508
	c3.534,0,6.41,2.876,6.41,6.411v33.335c0,3.535-2.876,6.411-6.41,6.411h-40.508c-3.534,0-6.41-2.876-6.41-6.411
	C125.517,256.33,125.517,222.995,125.517,222.995z"/>
<path d="M404.235,317.966c0-13.325-10.84-24.165-24.164-24.165h-40.508c-13.323,0-24.164,10.84-24.164,24.165v33.335
	c0,13.323,10.84,24.164,24.164,24.164h40.508c13.323,0,24.164-10.84,24.164-24.164L404.235,317.966L404.235,317.966z
	 M386.481,351.301c0,3.534-2.876,6.41-6.41,6.41h-40.508c-3.534,0-6.41-2.876-6.41-6.41v-33.335c0-3.535,2.876-6.411,6.41-6.411
	h40.508c3.534,0,6.41,2.876,6.41,6.411V351.301z"/>
<path d="M300.418,317.966c0-13.325-10.84-24.165-24.164-24.165h-40.508c-13.324,0-24.164,10.84-24.164,24.165v33.335
	c0,13.323,10.84,24.164,24.164,24.164h40.508c13.324,0,24.164-10.84,24.164-24.164V317.966L300.418,317.966z M282.664,351.301
	c0,3.534-2.876,6.41-6.41,6.41h-40.508c-3.534,0-6.41-2.876-6.41-6.41v-33.335c0-3.535,2.876-6.411,6.41-6.411h40.508
	c3.534,0,6.41,2.876,6.41,6.411L282.664,351.301L282.664,351.301z"/>
<path d="M107.764,351.301c0,13.323,10.84,24.164,24.164,24.164h40.508c13.323,0,24.164-10.84,24.164-24.164v-33.335
	c0-13.325-10.84-24.165-24.164-24.165h-40.508c-13.323,0-24.164,10.84-24.164,24.165
	C107.764,317.966,107.764,351.301,107.764,351.301z M125.517,317.966c0-3.535,2.876-6.411,6.41-6.411h40.508
	c3.534,0,6.41,2.876,6.41,6.411v33.335c0,3.534-2.876,6.41-6.41,6.41h-40.508c-3.534,0-6.41-2.876-6.41-6.41
	C125.517,351.301,125.517,317.966,125.517,317.966z"/>
<path d="M380.071,388.773h-40.508c-13.323,0-24.164,10.84-24.164,24.165v33.335c0,13.325,10.84,24.165,24.164,24.165h40.508
	c13.323,0,24.164-10.84,24.164-24.165v-33.335C404.235,399.614,393.395,388.773,380.071,388.773z M386.481,446.273
	c0,3.535-2.876,6.411-6.41,6.411h-40.508c-3.534,0-6.41-2.876-6.41-6.411v-33.335c0-3.535,2.876-6.411,6.41-6.411h40.508
	c3.534,0,6.41,2.876,6.41,6.411V446.273z"/>
<path d="M235.746,406.527h33.671c4.902,0,8.877-3.974,8.877-8.877c0-4.902-3.974-8.877-8.877-8.877h-33.671
	c-13.324,0-24.164,10.84-24.164,24.165v33.335c0,13.325,10.84,24.165,24.164,24.165h40.508c13.324,0,24.164-10.84,24.164-24.165
	v-33.335c0-4.902-3.974-8.877-8.877-8.877s-8.877,3.974-8.877,8.877v33.335c0,3.535-2.876,6.411-6.41,6.411h-40.508
	c-3.534,0-6.41-2.876-6.41-6.411v-33.335C229.336,409.403,232.211,406.527,235.746,406.527z"/>
<path d="M107.764,446.273c0,13.325,10.84,24.165,24.164,24.165h40.508c13.323,0,24.164-10.84,24.164-24.165v-33.335
	c0-13.325-10.84-24.165-24.164-24.165h-40.508c-13.323,0-24.164,10.84-24.164,24.165
	C107.764,412.937,107.764,446.273,107.764,446.273z M125.517,412.938c0-3.535,2.876-6.411,6.41-6.411h40.508
	c3.534,0,6.41,2.876,6.41,6.411v33.335c0,3.535-2.876,6.411-6.41,6.411h-40.508c-3.534,0-6.41-2.876-6.41-6.411
	C125.517,446.274,125.517,412.938,125.517,412.938z"/>
<path d="M317.69,134.922c0,4.902,3.974,8.877,8.877,8.877h39.057c4.902,0,8.877-3.974,8.877-8.877c0-4.902-3.974-8.877-8.877-8.877
	h-39.057C321.664,126.045,317.69,130.019,317.69,134.922z"/>
</svg>