<?xml version="1.0" ?>
<!-- Uploaded to: SVG Repo, www.svgrepo.com, Generator: SVG Repo Mixer Tools -->
<svg width="800px" height="800px" viewBox="0 0 24 24" xmlns="http://www.w3.org/2000/svg">
<defs>
<style>.cls-1{fill:#ccc;}.cls-2{fill:#eaeaea;}.cls-3{fill:#ce5959;}.cls-4{fill:#6c2e7c;}</style>
</defs>
<g id="Icons">
<rect class="cls-1" height="20" rx="3" width="22" x="1" y="3"/>
<rect class="cls-2" height="15" rx="3" width="22" x="1" y="3"/>
<path class="cls-3" d="M23,6V8H1V6A3,3,0,0,1,4,3H20A3,3,0,0,1,23,6Z"/>
</g>
<g data-name="Layer 4" id="Layer_4">
<path class="cls-4" d="M20,2H19V1a1,1,0,0,0-2,0V2H7V1A1,1,0,0,0,5,1V2H4A4,4,0,0,0,0,6V20a4,4,0,0,0,4,4H20a4,4,0,0,0,4-4V6A4,4,0,0,0,20,2Zm2,18a2,2,0,0,1-2,2H4a2,2,0,0,1-2-2V6A2,2,0,0,1,4,4H5V5A1,1,0,0,0,7,5V4H17V5a1,1,0,0,0,2,0V4h1a2,2,0,0,1,2,2Z"/>
<path class="cls-4" d="M19,7H5A1,1,0,0,0,5,9H19a1,1,0,0,0,0-2Z"/>
<path class="cls-4" d="M7,12H5a1,1,0,0,0,0,2H7a1,1,0,0,0,0-2Z"/>
<path class="cls-4" d="M7,17H5a1,1,0,0,0,0,2H7a1,1,0,0,0,0-2Z"/>
<path class="cls-4" d="M13,12H11a1,1,0,0,0,0,2h2a1,1,0,0,0,0-2Z"/>
<path class="cls-4" d="M13,17H11a1,1,0,0,0,0,2h2a1,1,0,0,0,0-2Z"/>
<path class="cls-4" d="M19,12H17a1,1,0,0,0,0,2h2a1,1,0,0,0,0-2Z"/>
<path class="cls-4" d="M19,17H17a1,1,0,0,0,0,2h2a1,1,0,0,0,0-2Z"/>
</g>
</svg>