<?xml version="1.0" encoding="iso-8859-1"?>
<!-- Uploaded to: SVG Repo, www.svgrepo.com, Generator: SVG Repo Mixer Tools -->
<svg height="800px" width="800px" version="1.1" id="Layer_1" xmlns="http://www.w3.org/2000/svg" xmlns:xlink="http://www.w3.org/1999/xlink" 
	 viewBox="0 0 512 512" xml:space="preserve">
<path style="fill:#2C6991;" d="M452.384,512c-4.605,0-9.21-1.756-12.723-5.271l-41.063-41.063c-7.027-7.026-7.027-18.42,0-25.447
	c7.026-7.027,18.42-7.027,25.447,0l41.063,41.063c7.027,7.027,7.027,18.42,0,25.447C461.594,510.243,456.99,512,452.384,512z"/>
<path style="fill:#528FB3;" d="M59.604,512c-4.605,0-9.21-1.756-12.723-5.271c-7.027-7.026-7.027-18.42,0-25.447l41.062-41.063
	c7.026-7.027,18.42-7.027,25.447,0c7.027,7.027,7.027,18.42,0,25.447l-41.062,41.063C68.814,510.243,64.209,512,59.604,512z"/>
<path style="fill:#ABA8AB;" d="M475.409,25.382c-11.137-10.655-24.284-17.94-38.172-21.884c-31.645-8.988-67.13-0.627-91.411,24.751
	c-3.299,3.449-5.092,8.066-4.987,12.838c0.106,4.771,2.102,9.304,5.55,12.604l90.897,86.96l15.549,14.876
	c3.486,3.335,7.964,4.991,12.436,4.991c4.738,0,9.471-1.861,13.005-5.555c16.923-17.689,25.945-40.909,25.404-65.385
	C503.139,65.105,493.098,42.306,475.409,25.382z"/>
<path style="fill:#CCCCCC;" d="M36.358,25.382C18.669,42.306,8.629,65.105,8.087,89.579c-0.541,24.475,8.48,47.696,25.404,65.385
	c3.535,3.695,8.266,5.555,13.005,5.555c4.472,0,8.95-1.657,12.436-4.991L165.377,53.691c3.449-3.299,5.445-7.833,5.55-12.604
	c0.106-4.772-1.688-9.389-4.987-12.838C131.006-8.266,72.875-9.551,36.358,25.382z"/>
<path style="fill:#16A5D9;" d="M256,7.635C117.801,7.635,5.367,120.068,5.367,258.268S117.801,508.901,256,508.901
	s250.633-112.434,250.633-250.633S394.2,7.635,256,7.635z"/>
<path style="fill:#4AD0FF;" d="M256,7.635C117.801,7.635,5.367,120.068,5.367,258.268S117.801,508.901,256,508.901V7.635z"/>
<path style="fill:#CCCCCC;" d="M256,76.98c-99.963,0-181.289,81.326-181.289,181.289S156.037,439.557,256,439.557
	s181.289-81.326,181.289-181.289S355.963,76.98,256,76.98z"/>
<path style="fill:#F5F4F5;" d="M256,76.98c-99.963,0-181.289,81.326-181.289,181.289S156.037,439.557,256,439.557V76.98z"/>
<path style="fill:#FB5858;" d="M315.525,319.716c-2.507,0-5.053-0.525-7.479-1.637l-63.134-28.904
	c-6.4-2.929-10.504-9.322-10.504-16.361V191.2c0-9.937,8.056-17.994,17.994-17.994s17.994,8.056,17.994,17.994v70.062l52.631,24.095
	c9.035,4.137,13.007,14.816,8.871,23.851C328.87,315.817,322.346,319.716,315.525,319.716z"/>
<path style="fill:#FF835D;" d="M255.998,294.252l-11.088-5.077c-6.4-2.929-10.504-9.322-10.504-16.361V191.2
	c0-9.937,8.056-17.994,17.994-17.994c1.232,0,2.436,0.124,3.599,0.36L255.998,294.252z"/>
</svg>