<?xml version="1.0" encoding="utf-8"?>
<!-- Uploaded to: SVG Repo, www.svgrepo.com, Generator: SVG Repo Mixer Tools -->
<svg width="800px" height="800px" viewBox="0 0 1024 1024" class="icon"  version="1.1" xmlns="http://www.w3.org/2000/svg"><path d="M640 960H384l21.333333-149.333333h213.333334z" fill="#B3B3B3" /><path d="M938.666667 21.333333H85.333333a64 64 0 0 0-64 64v597.333334h981.333334V85.333333a64 64 0 0 0-64-64z" fill="#444444" /><path d="M21.333333 682.666667v106.666666a64 64 0 0 0 64 64h853.333334a64 64 0 0 0 64-64v-106.666666H21.333333z" fill="#E6E6E6" /><path d="M85.333333 85.333333h853.333334v533.333334H85.333333z" fill="#43A6DD" /><path d="M746.666667 1024H277.333333a85.333333 85.333333 0 0 1 85.333334-85.333333h298.666666a85.333333 85.333333 0 0 1 85.333334 85.333333z" fill="#E6E6E6" /></svg>