<?xml version="1.0" encoding="utf-8"?>
<!-- Uploaded to: SVG Repo, www.svgrepo.com, Generator: SVG Repo Mixer Tools -->
<svg width="800px" height="800px" viewBox="0 0 1024 1024" class="icon"  version="1.1" xmlns="http://www.w3.org/2000/svg"><path d="M136.436736 593.825792V461.78304c0-75.42272 61.090816-136.281088 136.649728-135.927808l469.368832-0.002048c75.469824 0.352256 139.720704 64.029696 142.649344 139.280384 0 0 2.291712 5.917696 2.397184 128.6912 0.104448 122.773504 0.045056 158.030848 0.045056 158.030848-0.0256 75.474944-61.190144 136.659968-136.493056 136.659968H272.884736c-75.358208 0-136.448-61.198336-136.448-136.612864V593.825792z" fill="#FFF200" /><path d="M258.899968 887.808c-68.788224-7.016448-122.463232-65.215488-122.463232-135.90528V461.78304c0-75.201536 60.744704-135.928832 135.996416-135.928832l0.653312 0.001024 469.368832 2.189312c75.469824 0.352256 139.720704 61.83936 142.649344 137.090048 0 0 2.291712 5.916672 2.397184 128.6912 0.104448 122.773504 0.045056 158.029824 0.045056 158.029824C887.523328 822.603776 833.78176 880.7936 765.0304 887.808H258.899968z m-24.66304-751.616h34.869248c43.022336 0 64.384 16.259072 91.429888 36.84352 29.256704 22.268928 65.668096 49.982464 127.637504 49.982464h301.5424c54.088704 0 98.092032 43.933696 98.092032 97.93536v39.656448a187.64288 187.64288 0 0 0-18.945024-21.154816c-16.712704-16.039936-35.934208-28.676096-57.132032-37.558272-22.088704-9.253888-45.33248-14.0032-69.087232-14.113792L273.273856 285.5936l-0.840704-0.002048c-23.80288 0-46.8992 4.653056-68.64896 13.831168-21.010432 8.864768-39.862272 21.556224-56.032256 37.71904A177.8688 177.8688 0 0 0 136.192 349.87008V234.10688c0-53.9904 43.982848-97.91488 98.044928-97.91488z m555.47904 45.865984H488.173568C389.128192 182.057984 379.7248 95.232 269.106176 95.232h-34.869248C157.58848 95.232 95.232 157.40928 95.232 234.10688v555.61216C95.232 866.41664 157.485056 928.768 234.277888 928.768h37.630976c0.324608 0 0.649216 0.011264 0.974848 0.011264h478.170112c0.325632 0 0.65024-0.01024 0.975872-0.012288h37.692416C866.458624 928.768 928.768 866.63168 928.768 789.98528V320.953344c0-76.619776-62.255104-138.89536-139.052032-138.89536z" fill="#000000" /></svg>