<?xml version="1.0" encoding="iso-8859-1"?>
<!-- Uploaded to: SVG Repo, www.svgrepo.com, Generator: SVG Repo Mixer Tools -->
<svg height="800px" width="800px" version="1.1" id="Layer_1" xmlns="http://www.w3.org/2000/svg" xmlns:xlink="http://www.w3.org/1999/xlink" 
	 viewBox="0 0 512 512" xml:space="preserve">
<path style="fill:#27467A;" d="M447.297,0h-33.758v512h33.758c18.567,0,33.758-15.191,33.758-33.758V33.758
	C481.055,15.191,465.864,0,447.297,0z"/>
<path style="fill:#2F5E88;" d="M447.297,33.758v444.484c0,18.567-15.191,33.758-33.758,33.758H64.703
	c-18.567,0-33.758-15.191-33.758-33.758V33.758C30.945,15.191,46.136,0,64.703,0h348.835C432.106,0,447.297,15.191,447.297,33.758z"
	/>
<polygon style="fill:#88ACB5;" points="379.78,33.758 332.035,33.758 332.035,478.242 379.78,478.242 447.297,410.725 
	447.297,101.275 "/>
<polygon style="fill:#A7CBCF;" points="413.538,115.262 413.538,396.738 332.035,478.242 132.22,478.242 64.703,410.725 
	64.703,101.275 132.22,33.758 332.035,33.758 "/>
<path style="fill:#C7E7EB;" d="M257.598,67.528v315.054c86.275-0.855,155.941-71.05,155.941-157.527S343.873,68.383,257.598,67.528z
	"/>
<path style="fill:#E5FAFC;" d="M257.598,67.528c67.629,1.092,122.182,71.196,122.182,157.527s-54.553,156.436-122.182,157.527
	c-0.529,0.011-1.069,0.011-1.598,0.011c-87.006,0-157.538-70.532-157.538-157.538S168.994,67.516,256,67.516
	C256.529,67.516,257.069,67.516,257.598,67.528z"/>
<path style="fill:#88ACB5;" d="M256,174.418v101.275c27.918,0,50.637-22.719,50.637-50.637S283.918,174.418,256,174.418z"/>
<g>
	<path style="fill:#A7CBCF;" d="M256,174.418c9.306,0,16.879,22.719,16.879,50.637s-7.573,50.637-16.879,50.637
		c-27.918,0-50.637-22.719-50.637-50.637S228.082,174.418,256,174.418z"/>
	<circle style="fill:#A7CBCF;" cx="73.143" cy="42.198" r="8.44"/>
	<circle style="fill:#A7CBCF;" cx="438.857" cy="42.198" r="8.44"/>
	<circle style="fill:#A7CBCF;" cx="73.143" cy="469.802" r="8.44"/>
	<circle style="fill:#A7CBCF;" cx="438.857" cy="469.802" r="8.44"/>
</g>
<path style="fill:#27467A;" d="M306.637,438.857H205.363c-4.662,0-8.44-3.779-8.44-8.44s3.778-8.44,8.44-8.44h101.275
	c4.662,0,8.44,3.779,8.44,8.44S311.299,438.857,306.637,438.857z"/>
</svg>