<?xml version="1.0" encoding="utf-8"?>
<!-- Uploaded to: SVG Repo, www.svgrepo.com, Generator: SVG Repo Mixer Tools -->
<svg width="800px" height="800px" viewBox="0 0 1024 1024" class="icon"  version="1.1" xmlns="http://www.w3.org/2000/svg"><path d="M925.866667 177.066667L85.333333 320l-6.4-42.666667C70.4 230.4 102.4 187.733333 149.333333 179.2l674.133334-113.066667c46.933333-8.533333 89.6 23.466667 98.133333 70.4l4.266667 40.533334zM853.333333 874.666667H170.666667c-46.933333 0-85.333333-38.4-85.333334-85.333334V320h853.333334v469.333333c0 46.933333-38.4 85.333333-85.333334 85.333334z" fill="#3F51B5" /><path d="M401.066667 136.533333l104.533333 113.066667 85.333333-14.933333-106.666666-113.066667zM232.533333 164.266667l104.533334 113.066666 85.333333-14.933333-106.666667-110.933333zM569.6 108.8l104.533333 110.933333 83.2-12.8-104.533333-113.066666zM736 81.066667l106.666667 110.933333 83.2-14.933333-104.533334-110.933334z" fill="#9FA8DA" /><path d="M160 245.333333m-32 0a32 32 0 1 0 64 0 32 32 0 1 0-64 0Z" fill="#9FA8DA" /><path d="M853.333333 320l-85.333333 128h85.333333l85.333334-128zM682.666667 320l-85.333334 128h85.333334l85.333333-128zM512 320l-85.333333 128h85.333333l85.333333-128zM341.333333 320l-85.333333 128h85.333333l85.333334-128zM170.666667 320l-85.333334 128h85.333334l85.333333-128z" fill="#9FA8DA" /></svg>