<?xml version="1.0" encoding="utf-8"?>
<!-- Uploaded to: SVG Repo, www.svgrepo.com, Generator: SVG Repo Mixer Tools -->
<svg width="800px" height="800px" viewBox="0 0 1024 1024" class="icon"  version="1.1" xmlns="http://www.w3.org/2000/svg"><path d="M372.778667 182.997333l566.272 189.952-189.952 566.272L182.826667 749.269333z" fill="#64B5F6" /><path d="M410.410667 266.752l446.336 145.493333-132.266667 405.76-446.336-145.493333z" fill="#1E88E5" /><path d="M232.128 123.264l587.178667 108.117333-108.117334 587.178667-587.178666-108.117333z" fill="#90CAF9" /><path d="M282.005333 201.472l462.293334 82.133333-74.666667 420.266667-462.293333-82.133333z" fill="#42A5F5" /><path d="M85.333333 85.333333h597.333334v597.333334H85.333333z" fill="#BBDEFB" /><path d="M149.333333 149.333333h469.333334v426.666667H149.333333z" fill="#4CAF50" /><path d="M341.333333 277.333333c0-23.466667 19.2-42.666667 42.666667-42.666666s42.666667 19.2 42.666667 42.666666-42.666667 85.333333-42.666667 85.333334-42.666667-61.866667-42.666667-85.333334zM426.666667 448c0 23.466667-19.2 42.666667-42.666667 42.666667s-42.666667-19.2-42.666667-42.666667 42.666667-85.333333 42.666667-85.333333 42.666667 61.866667 42.666667 85.333333z" fill="#FFFFFF" /><path d="M288 356.266667c-21.333333-12.8-27.733333-38.4-14.933333-57.6 12.8-21.333333 38.4-27.733333 57.6-14.933334 21.333333 12.8 53.333333 78.933333 53.333333 78.933334s-74.666667 6.4-96-6.4zM480 369.066667c21.333333 12.8 27.733333 38.4 14.933333 57.6-12.8 21.333333-38.4 27.733333-57.6 14.933333-21.333333-10.666667-53.333333-78.933333-53.333333-78.933333s74.666667-6.4 96 6.4z" fill="#FFFFFF" /><path d="M480 356.266667c21.333333-12.8 27.733333-38.4 14.933333-57.6-12.8-21.333333-38.4-27.733333-57.6-14.933334-21.333333 10.666667-53.333333 78.933333-53.333333 78.933334s74.666667 6.4 96-6.4zM288 369.066667c-21.333333 12.8-27.733333 38.4-14.933333 57.6 12.8 21.333333 38.4 27.733333 57.6 14.933333 21.333333-12.8 53.333333-78.933333 53.333333-78.933333s-74.666667-6.4-96 6.4z" fill="#FFFFFF" /><path d="M384 362.666667m-42.666667 0a42.666667 42.666667 0 1 0 85.333334 0 42.666667 42.666667 0 1 0-85.333334 0Z" fill="#FFC107" /></svg>